HIERARCHY
ROOT hip
{
  OFFSET 0.00112043 5.09927 -9.65472
  CHANNELS 6 Xposition Yposition Zposition Zrotation Xrotation Yrotation
  JOINT abdomen
  {
    OFFSET 0 -1.186 -1.5018
    CHANNELS 3 Zrotation Xrotation Yrotation
    JOINT abdomen2
    {
      OFFSET 0 9.964 0.2134
      CHANNELS 3 Zrotation Xrotation Yrotation
      JOINT chest
      {
        OFFSET 0 13.134 -3.2573
        CHANNELS 3 Zrotation Xrotation Yrotation
        JOINT neck
        {
          OFFSET 0 20.686 -1.6905
          CHANNELS 3 Zrotation Xrotation Yrotation
          JOINT head
          {
            OFFSET 0 7.238 -0.1237
            CHANNELS 3 Zrotation Xrotation Yrotation
            End Site
            {
              OFFSET 0 0 0
            }
          }
        }
        JOINT lCollar
        {
          OFFSET 1.7069 20.075 5.0056
          CHANNELS 3 Zrotation Xrotation Yrotation
          JOINT lShldr
          {
            OFFSET 13.6458 -0.047 -4.849
            CHANNELS 3 Zrotation Xrotation Yrotation
            JOINT lForeArm
            {
              OFFSET 28.3255 -0.9759 2.2888
              CHANNELS 3 Zrotation Xrotation Yrotation
              JOINT lHand
              {
                OFFSET 22.1583 -0.53 10.8316
                CHANNELS 3 Zrotation Xrotation Yrotation
                JOINT lThumb1
                {
                  OFFSET 0.786 0.112 2.5817
                  CHANNELS 3 Zrotation Xrotation Yrotation
                  JOINT lThumb2
                  {
                    OFFSET 0.3601 -0.878 4.2331
                    CHANNELS 3 Zrotation Xrotation Yrotation
                    JOINT lThumb2_End
                    {
                      OFFSET 1.8127 -1.216 2.2227
                      CHANNELS 3 Zrotation Xrotation Yrotation
                      End Site
                      {
                        OFFSET 0.0181 -0.0122 0.0222
                      }
                    }
                  }
                }
                JOINT lCarpal1
                {
                  OFFSET 0.9571 1.114 1.7695
                  CHANNELS 3 Zrotation Xrotation Yrotation
                  JOINT lIndex1
                  {
                    OFFSET 4.1246 0.487 4.1451
                    CHANNELS 3 Zrotation Xrotation Yrotation
                    JOINT lIndex2
                    {
                      OFFSET 3.4052 -1.454 2.7682
                      CHANNELS 3 Zrotation Xrotation Yrotation
                      JOINT lIndex2_End
                      {
                        OFFSET 1.4531 -1.795 1.2713
                        CHANNELS 3 Zrotation Xrotation Yrotation
                        End Site
                        {
                          OFFSET 0.0145 -0.0179 0.0127
                        }
                      }
                    }
                  }
                  JOINT lMid1
                  {
                    OFFSET 5.6954 0.21 2.1184
                    CHANNELS 3 Zrotation Xrotation Yrotation
                    JOINT lMid2
                    {
                      OFFSET 3.9766 -1.54 2.3863
                      CHANNELS 3 Zrotation Xrotation Yrotation
                      JOINT lMid2_End
                      {
                        OFFSET 1.4042 -1.926 1.125
                        CHANNELS 3 Zrotation Xrotation Yrotation
                        End Site
                        {
                          OFFSET 0.014 -0.0193 0.0113
                        }
                      }
                    }
                  }
                }
                JOINT lCarpal2
                {
                  OFFSET 2.0956 0.66 -0.3894
                  CHANNELS 3 Zrotation Xrotation Yrotation
                  JOINT lRing1
                  {
                    OFFSET 5.0395 -0.09 2.4971
                    CHANNELS 3 Zrotation Xrotation Yrotation
                    JOINT lRing2
                    {
                      OFFSET 3.7921 -1.552 1.4806
                      CHANNELS 3 Zrotation Xrotation Yrotation
                      JOINT lRing2_End
                      {
                        OFFSET 1.4655 -1.808 0.9609
                        CHANNELS 3 Zrotation Xrotation Yrotation
                        End Site
                        {
                          OFFSET 0.0147 -0.0181 0.0096
                        }
                      }
                    }
                  }
                  JOINT lPinky1
                  {
                    OFFSET 4.9141 -1.269 0.3591
                    CHANNELS 3 Zrotation Xrotation Yrotation
                    JOINT lPinky2
                    {
                      OFFSET 3.1477 -1.685 0.8462
                      CHANNELS 3 Zrotation Xrotation Yrotation
                      JOINT lPinky2_End
                      {
                        OFFSET 0.8055 -1.585 0.7955
                        CHANNELS 3 Zrotation Xrotation Yrotation
                        End Site
                        {
                          OFFSET 0.0081 -0.0158 0.008
                        }
                      }
                    }
                  }
                }
              }
            }
          }
        }
        JOINT rCollar
        {
          OFFSET -1.7069 20.075 5.0056
          CHANNELS 3 Zrotation Xrotation Yrotation
          JOINT rShldr
          {
            OFFSET -13.6458 -0.047 -4.849
            CHANNELS 3 Zrotation Xrotation Yrotation
            JOINT rForeArm
            {
              OFFSET -28.3255 -0.9759 2.2888
              CHANNELS 3 Zrotation Xrotation Yrotation
              JOINT rHand
              {
                OFFSET -22.1583 -0.53 10.8316
                CHANNELS 3 Zrotation Xrotation Yrotation
                JOINT rThumb1
                {
                  OFFSET -0.786 0.112 2.5817
                  CHANNELS 3 Zrotation Xrotation Yrotation
                  JOINT rThumb2
                  {
                    OFFSET -0.3601 -0.878 4.2331
                    CHANNELS 3 Zrotation Xrotation Yrotation
                    JOINT rThumb2_End
                    {
                      OFFSET -1.8127 -1.216 2.2227
                      CHANNELS 3 Zrotation Xrotation Yrotation
                      End Site
                      {
                        OFFSET -0.0181 -0.0122 0.0222
                      }
                    }
                  }
                }
                JOINT rCarpal1
                {
                  OFFSET -0.9571 1.114 1.7695
                  CHANNELS 3 Zrotation Xrotation Yrotation
                  JOINT rIndex1
                  {
                    OFFSET -4.1246 0.487 4.1451
                    CHANNELS 3 Zrotation Xrotation Yrotation
                    JOINT rIndex2
                    {
                      OFFSET -3.4052 -1.454 2.7682
                      CHANNELS 3 Zrotation Xrotation Yrotation
                      JOINT rIndex2_End
                      {
                        OFFSET -1.4531 -1.795 1.2713
                        CHANNELS 3 Zrotation Xrotation Yrotation
                        End Site
                        {
                          OFFSET -0.0145 -0.018 0.0127
                        }
                      }
                    }
                  }
                  JOINT rMid1
                  {
                    OFFSET -5.6954 0.21 2.1184
                    CHANNELS 3 Zrotation Xrotation Yrotation
                    JOINT rMid2
                    {
                      OFFSET -3.9766 -1.54 2.3863
                      CHANNELS 3 Zrotation Xrotation Yrotation
                      JOINT rMid2_End
                      {
                        OFFSET -1.4042 -1.926 1.125
                        CHANNELS 3 Zrotation Xrotation Yrotation
                        End Site
                        {
                          OFFSET -0.014 -0.0193 0.0113
                        }
                      }
                    }
                  }
                }
                JOINT rCarpal2
                {
                  OFFSET -2.0956 0.66 -0.3894
                  CHANNELS 3 Zrotation Xrotation Yrotation
                  JOINT rRing1
                  {
                    OFFSET -5.0395 -0.09 2.4971
                    CHANNELS 3 Zrotation Xrotation Yrotation
                    JOINT rRing2
                    {
                      OFFSET -3.7921 -1.552 1.4806
                      CHANNELS 3 Zrotation Xrotation Yrotation
                      JOINT rRing2_End
                      {
                        OFFSET -1.4655 -1.808 0.9609
                        CHANNELS 3 Zrotation Xrotation Yrotation
                        End Site
                        {
                          OFFSET -0.0147 -0.0181 0.0096
                        }
                      }
                    }
                  }
                  JOINT rPinky1
                  {
                    OFFSET -4.9141 -1.269 0.3592
                    CHANNELS 3 Zrotation Xrotation Yrotation
                    JOINT rPinky2
                    {
                      OFFSET -3.1477 -1.685 0.8462
                      CHANNELS 3 Zrotation Xrotation Yrotation
                      JOINT rPinky2_End
                      {
                        OFFSET -0.8055 -1.585 0.7955
                        CHANNELS 3 Zrotation Xrotation Yrotation
                        End Site
                        {
                          OFFSET -0.0081 -0.0158 0.008
                        }
                      }
                    }
                  }
                }
              }
            }
          }
        }
      }
    }
  }
  JOINT lThigh
  {
    OFFSET 8.367 -8.2066 0.5982
    CHANNELS 3 Zrotation Xrotation Yrotation
    JOINT lShin
    {
      OFFSET 2.1923 -43.463 -0.4932
      CHANNELS 3 Zrotation Xrotation Yrotation
      JOINT lFoot
      {
        OFFSET 0.7333 -45.8593 -2.6451
        CHANNELS 3 Zrotation Xrotation Yrotation
        End Site
        {
          OFFSET 2.6618 -4.2699 12.3931
        }
      }
    }
  }
  JOINT rThigh
  {
    OFFSET -8.367 -8.2066 0.5982
    CHANNELS 3 Zrotation Xrotation Yrotation
    JOINT rShin
    {
      OFFSET -2.1923 -43.463 -0.4931
      CHANNELS 3 Zrotation Xrotation Yrotation
      JOINT rFoot
      {
        OFFSET -0.7333 -45.8593 -2.6451
        CHANNELS 3 Zrotation Xrotation Yrotation
        End Site
        {
          OFFSET -2.6618 -4.2699 12.3931
        }
      }
    }
  }
}
MOTION
Frames:	4
Frame Time:	0.0333333
0.692259 30.3815 17.9462 -7.08406e-015 -0.549927 180 -0.0406407 6.34188 -0.0328591 -0.0783223 12.6838 -0.0617324 -0.0783223 12.6837 -0.0617324 -4.36194 0.431616 -6.56356 -4.33024 -15.8048 -0.893865 -19.0079 -30.4128 -27.1935 -22.7729 7.607 -31.5169 -51.8818 81.5924 6.68746 70.9992 -21.6505 16.8598 -2.56706e-007 3.14566e-007 -2.38219e-006 3.67571e-007 2.90897e-007 -1.61699e-006 -3.44038e-007 2.4662e-007 5.32552e-008 1.59028e-015 -2.38542e-015 3.18055e-015 -2.56706e-007 3.14566e-007 -2.38219e-006 3.67571e-007 2.90897e-007 -1.61699e-006 -3.44038e-007 2.4662e-007 5.32552e-008 -2.56706e-007 3.14566e-007 -2.38219e-006 3.67571e-007 2.90897e-007 -1.61699e-006 -3.44038e-007 2.4662e-007 5.32552e-008 1.59028e-015 -2.38542e-015 3.18055e-015 -2.56706e-007 3.14566e-007 -2.38219e-006 3.67571e-007 2.90897e-007 -1.61699e-006 -3.44038e-007 2.4662e-007 5.32552e-008 -2.56706e-007 3.14566e-007 -2.38219e-006 3.67571e-007 2.90897e-007 -1.61699e-006 -3.44038e-007 2.4662e-007 5.32552e-008 22.4701 -28.2256 27.3472 21.0674 6.50158 38.8148 54.0604 68.3609 -14.0757 -73.5955 -23.0301 -18.8947 -1.26626e-006 -1.11607e-006 1.98249e-007 -1.04551e-006 -3.05622e-008 -1.06965e-006 -1.41192e-006 -1.01041e-006 1.44976e-006 -7.95139e-016 9.93923e-016 -7.95139e-016 -1.26626e-006 -1.11607e-006 1.98249e-007 -1.04551e-006 -3.05622e-008 -1.06965e-006 -1.41192e-006 -1.01041e-006 1.44976e-006 -1.26626e-006 -1.11607e-006 1.98249e-007 -1.04551e-006 -3.05622e-008 -1.06965e-006 -1.41192e-006 -1.01041e-006 1.44976e-006 -7.95139e-016 9.93923e-016 -7.95139e-016 -1.26626e-006 -1.11607e-006 1.98249e-007 -1.04551e-006 -3.05622e-008 -1.06965e-006 -1.41192e-006 -1.01041e-006 1.44976e-006 -1.26626e-006 -1.11607e-006 1.98249e-007 -1.04551e-006 -3.05622e-008 -1.06965e-006 -1.41192e-006 -1.01041e-006 1.44976e-006 126.385 -44.9651 143.74 129.116 69.0487 -128.756 3.80085 1.70177 3.65516 -126.378 -44.9491 -143.76 -129.092 69.0223 128.733 -3.80667 1.6944 -3.67952 
0.692216 30.4815 17.9363 -7.15163e-015 -1.10161 180 -0.04021 6.06553 -0.033435 -0.0774947 12.1311 -0.0630963 -0.0774946 12.1311 -0.0630964 -4.3293 -0.112684 -6.55188 -4.31749 -16.9512 -0.97037 -19.3709 -29.3533 -27.1526 -22.7729 7.60702 -31.5169 -49.5001 81.7454 5.5892 70.9925 -22.3652 16.7497 1.98428e-007 -1.35839e-006 5.51834e-006 -8.86526e-007 1.85165e-006 -5.41322e-006 1.98428e-007 -1.35839e-006 5.51834e-006 -1.59028e-015 7.95139e-016 -3.18055e-015 1.98428e-007 -1.35839e-006 5.51834e-006 -8.86526e-007 1.85165e-006 -5.41322e-006 1.98428e-007 -1.35839e-006 5.51834e-006 1.98428e-007 -1.35839e-006 5.51834e-006 -8.86526e-007 1.85165e-006 -5.41322e-006 1.98428e-007 -1.35839e-006 5.51834e-006 -1.59028e-015 7.95139e-016 -3.18055e-015 1.98428e-007 -1.35839e-006 5.51834e-006 -8.86526e-007 1.85165e-006 -5.41322e-006 1.98428e-007 -1.35839e-006 5.51834e-006 1.98428e-007 -1.35839e-006 5.51834e-006 -8.86526e-007 1.85165e-006 -5.41322e-006 1.98428e-007 -1.35839e-006 5.51834e-006 22.6318 -27.3085 27.1881 21.0674 6.50159 38.8148 53.34 68.349 -14.2742 -73.5065 -23.5666 -18.7883 7.06277e-007 1.74958e-006 -1.11981e-007 1.82343e-006 4.84727e-007 -2.82215e-007 1.26485e-006 1.11715e-006 -1.97098e-007 0 2.13694e-015 -0 7.06277e-007 1.74958e-006 -1.11981e-007 1.82343e-006 4.84727e-007 -2.82215e-007 1.26485e-006 1.11715e-006 -1.97098e-007 7.06277e-007 1.74958e-006 -1.11981e-007 1.82343e-006 4.84727e-007 -2.82215e-007 1.26485e-006 1.11715e-006 -1.97098e-007 0 2.13694e-015 -0 7.06277e-007 1.74958e-006 -1.11981e-007 1.82343e-006 4.84727e-007 -2.82215e-007 1.26485e-006 1.11715e-006 -1.97098e-007 7.06277e-007 1.74958e-006 -1.11981e-007 1.82343e-006 4.84727e-007 -2.82215e-007 1.26485e-006 1.11715e-006 -1.97098e-007 126.94 -44.9993 144.269 129.12 69.0473 -128.758 3.52314 1.72147 3.94293 -126.933 -44.9832 -144.289 -129.097 69.021 128.736 -3.52885 1.71374 -3.96714 
0.692172 30.581 17.9264 -7.21923e-015 -1.65321 180 -0.0397841 5.78925 -0.034008 -0.0766858 11.5785 -0.0644491 -0.0766858 11.5785 -0.0644491 -4.29654 -0.657208 -6.53986 -4.30625 -18.0984 -1.04714 -19.7309 -28.2944 -27.1045 -22.7729 7.60702 -31.5169 -50.1935 80.6057 7.54916 70.9843 -23.0797 16.6389 6.82197e-007 -5.00786e-007 -1.07037e-007 6.82197e-007 -5.00786e-007 -1.07037e-007 6.82197e-007 -5.00786e-007 -1.07037e-007 1.32417e-031 -2.38542e-015 3.18055e-015 6.82197e-007 -5.00786e-007 -1.07037e-007 6.82197e-007 -5.00786e-007 -1.07037e-007 6.82197e-007 -5.00786e-007 -1.07037e-007 6.82197e-007 -5.00786e-007 -1.07037e-007 6.82197e-007 -5.00786e-007 -1.07037e-007 6.82197e-007 -5.00786e-007 -1.07037e-007 1.32417e-031 -2.38542e-015 3.18055e-015 6.82197e-007 -5.00786e-007 -1.07037e-007 6.82197e-007 -5.00786e-007 -1.07037e-007 6.82197e-007 -5.00786e-007 -1.07037e-007 6.82197e-007 -5.00786e-007 -1.07037e-007 6.82197e-007 -5.00786e-007 -1.07037e-007 6.82197e-007 -5.00786e-007 -1.07037e-007 22.7949 -26.392 27.0275 21.0674 6.50158 38.8148 52.62 68.338 -14.4729 -73.4161 -24.1029 -18.6805 4.02564e-007 -3.38886e-007 -6.58237e-007 2.76736e-006 4.59811e-007 7.60092e-007 1.03431e-006 2.20201e-007 -7.56209e-007 -7.95139e-016 4.07509e-015 -2.38542e-015 4.02564e-007 -3.38886e-007 -6.58237e-007 2.76736e-006 4.59811e-007 7.60092e-007 1.03431e-006 2.20201e-007 -7.56209e-007 4.02564e-007 -3.38886e-007 -6.58237e-007 2.76736e-006 4.59811e-007 7.60092e-007 1.03431e-006 2.20201e-007 -7.56209e-007 -7.95139e-016 4.07509e-015 -2.38542e-015 4.02564e-007 -3.38886e-007 -6.58237e-007 2.76736e-006 4.59811e-007 7.60092e-007 1.03431e-006 2.20201e-007 -7.56209e-007 4.02564e-007 -3.38886e-007 -6.58237e-007 2.76736e-006 4.59811e-007 7.60092e-007 1.03431e-006 2.20201e-007 -7.56209e-007 127.495 -45.0295 144.797 129.125 69.0459 -128.761 3.24498 1.74079 4.23072 -127.488 -45.0133 -144.817 -129.101 69.0196 128.738 -3.25066 1.73267 -4.25477 
0.692133 30.6801 17.9166 -7.28685e-015 -2.20476 180 -0.0393627 5.51303 -0.0345782 -0.0758959 11.0261 -0.0657912 -0.0758959 11.0261 -0.0657911 -4.26369 -1.20171 -6.52755 -4.29657 -19.2463 -1.12424 -20.0883 -27.2364 -27.0494 -22.7729 7.60701 -31.5169 -50.2664 79.5674 8.89834 70.9745 -23.7941 16.5275 -1.59028e-015 4.77083e-015 1.59028e-015 1.59028e-015 3.57812e-015 -0 0 7.95139e-015 -0 -1.59028e-015 -3.97569e-016 1.59028e-015 -3.18055e-015 2.78299e-015 -1.59028e-015 -3.31043e-031 3.97569e-015 4.77083e-015 -3.64147e-031 4.37326e-015 4.77083e-015 -3.18055e-015 2.78299e-015 -1.59028e-015 -3.31043e-031 3.97569e-015 4.77083e-015 -3.64147e-031 4.37326e-015 4.77083e-015 -1.59028e-015 -3.97569e-016 1.59028e-015 -3.18055e-015 2.78299e-015 -1.59028e-015 -3.31043e-031 3.97569e-015 4.77083e-015 -3.64147e-031 4.37326e-015 4.77083e-015 -3.18055e-015 2.78299e-015 -1.59028e-015 -3.31043e-031 3.97569e-015 4.77083e-015 -3.64147e-031 4.37326e-015 4.77083e-015 22.9596 -25.4763 26.8653 21.0674 6.50158 38.8148 51.9006 68.3279 -14.6718 -73.3241 -24.639 -18.5715 1.82172e-006 4.88058e-007 -2.8464e-007 6.31075e-007 5.59566e-007 -9.73934e-008 1.19064e-006 -7.15087e-008 -1.87247e-007 -7.95139e-016 7.70291e-016 7.95139e-016 1.82172e-006 4.88058e-007 -2.8464e-007 6.31075e-007 5.59566e-007 -9.73934e-008 1.19064e-006 -7.15087e-008 -1.87247e-007 1.82172e-006 4.88058e-007 -2.8464e-007 6.31075e-007 5.59566e-007 -9.73934e-008 1.19064e-006 -7.15087e-008 -1.87247e-007 -7.95139e-016 7.70291e-016 7.95139e-016 1.82172e-006 4.88058e-007 -2.8464e-007 6.31075e-007 5.59566e-007 -9.73934e-008 1.19064e-006 -7.15087e-008 -1.87247e-007 1.82172e-006 4.88058e-007 -2.8464e-007 6.31075e-007 5.59566e-007 -9.73934e-008 1.19064e-006 -7.15087e-008 -1.87247e-007 128.05 -45.0556 145.326 129.13 69.0445 -128.764 2.96645 1.75983 4.51852 -128.043 -45.0393 -145.345 -129.107 69.0181 128.741 -2.97208 1.75123 -4.54237 
